<svg width="20" height="20" viewBox="0 0 20 20" fill="none" xmlns="http://www.w3.org/2000/svg">
<path fill-rule="evenodd" clip-rule="evenodd" d="M5.00001 5.16666C5.00001 3.23367 6.56701 1.66666 8.50001 1.66666H11.5C13.433 1.66666 15 3.23367 15 5.16666V5.66666C15 5.72254 14.9987 5.7781 14.9961 5.83333H19.1667V9.66666C19.1667 10.7712 18.2712 11.6667 17.1667 11.6667H2.83335C1.72878 11.6667 0.833344 10.7712 0.833344 9.66666V5.83333H5.00391C5.00132 5.7781 5.00001 5.72254 5.00001 5.66666V5.16666ZM13.3333 5.83333H6.66668V4.33333C6.66668 3.78105 7.11439 3.33333 7.66668 3.33333H12.3333C12.8856 3.33333 13.3333 3.78105 13.3333 4.33333V5.83333ZM0.833344 10.5V16.3333C0.833344 17.4379 1.72878 18.3333 2.83335 18.3333H17.1667C18.2712 18.3333 19.1667 17.4379 19.1667 16.3333V10.5C19.1667 11.6046 18.2712 12.5 17.1667 12.5H2.83335C1.72878 12.5 0.833344 11.6046 0.833344 10.5Z" fill="#8C8C8C"/>
</svg>
