<svg width="20" height="20" viewBox="0 0 20 20" fill="none" xmlns="http://www.w3.org/2000/svg">
<path fill-rule="evenodd" clip-rule="evenodd" d="M10.8333 4.58333C10.8333 7.11463 8.7813 9.16666 6.25 9.16666C3.71869 9.16666 1.66666 7.11463 1.66666 4.58333C1.66666 2.05202 3.71869 -7.62939e-06 6.25 -7.62939e-06C8.7813 -7.62939e-06 10.8333 2.05202 10.8333 4.58333ZM6.25 9.99999C3.71869 9.99999 1.66666 12.052 1.66666 14.5833V19.1667H10.8333V14.5833C10.8333 12.052 8.7813 9.99999 6.25 9.99999ZM15 11.6667C13.159 11.6667 11.6667 13.159 11.6667 15V19.1667H18.3333V15C18.3333 13.159 16.8409 11.6667 15 11.6667ZM15 10.8333C16.8409 10.8333 18.3333 9.34094 18.3333 7.49999C18.3333 5.65904 16.8409 4.16666 15 4.16666C13.159 4.16666 11.6667 5.65904 11.6667 7.49999C11.6667 9.34094 13.159 10.8333 15 10.8333Z" fill="#8C8C8C"/>
</svg>
